<svg width="1187.8mm" height="474.31mm" version="1.1" viewBox="0 0 1187.8 474.31" xmlns="http://www.w3.org/2000/svg">
      <g transform="translate(-40.578 230.49)" fill="#333">
            <path transform="matrix(.13528 .12479 -.13528 .12479 401.79 -203.6)" d="m245.26 337.85c-17.964 18.06-139.36 50.366-164.01 43.756-24.643-6.6095-113.41-95.181-120.03-119.8-6.6246-24.618 25.693-146.46 43.751-164.47 18.058-18.016 140.09-50.144 164.7-43.555 24.611 6.5888 113.34 95.029 119.86 119.65 6.5168 24.625-26.303 146.36-44.266 164.42z" style="paint-order:stroke fill markers"/>
            <path transform="matrix(.078914 .072794 -.078914 .072794 894.97 -196.76)" d="m245.26 337.85c-17.964 18.06-139.36 50.366-164.01 43.756-24.643-6.6095-113.41-95.181-120.03-119.8-6.6246-24.618 25.693-146.46 43.751-164.47 18.058-18.016 140.09-50.144 164.7-43.555 24.611 6.5888 113.34 95.029 119.86 119.65 6.5168 24.625-26.303 146.36-44.266 164.42z" style="paint-order:stroke fill markers"/>
            <path transform="matrix(.13528 .12479 -.13528 .12479 1078.9 81.581)" d="m245.26 337.85c-17.964 18.06-139.36 50.366-164.01 43.756-24.643-6.6095-113.41-95.181-120.03-119.8-6.6246-24.618 25.693-146.46 43.751-164.47 18.058-18.016 140.09-50.144 164.7-43.555 24.611 6.5888 113.34 95.029 119.86 119.65 6.5168 24.625-26.303 146.36-44.266 164.42z" style="paint-order:stroke fill markers"/>
            <path transform="matrix(.11273 .10399 -.11273 .10399 191.88 97.434)" d="m245.26 337.85c-17.964 18.06-139.36 50.366-164.01 43.756-24.643-6.6095-113.41-95.181-120.03-119.8-6.6246-24.618 25.693-146.46 43.751-164.47 18.058-18.016 140.09-50.144 164.7-43.555 24.611 6.5888 113.34 95.029 119.86 119.65 6.5168 24.625-26.303 146.36-44.266 164.42z" style="paint-order:stroke fill markers"/>
            <path transform="matrix(.11273 .10399 -.11273 .10399 1174 -193.85)" d="m245.26 337.85c-17.964 18.06-139.36 50.366-164.01 43.756-24.643-6.6095-113.41-95.181-120.03-119.8-6.6246-24.618 25.693-146.46 43.751-164.47 18.058-18.016 140.09-50.144 164.7-43.555 24.611 6.5888 113.34 95.029 119.86 119.65 6.5168 24.625-26.303 146.36-44.266 164.42z" style="paint-order:stroke fill markers"/>
            <path transform="matrix(.045094 .041597 -.045094 .041597 169.11 -166.11)" d="m245.26 337.85c-17.964 18.06-139.36 50.366-164.01 43.756-24.643-6.6095-113.41-95.181-120.03-119.8-6.6246-24.618 25.693-146.46 43.751-164.47 18.058-18.016 140.09-50.144 164.7-43.555 24.611 6.5888 113.34 95.029 119.86 119.65 6.5168 24.625-26.303 146.36-44.266 164.42z" style="paint-order:stroke fill markers"/>
            <path transform="matrix(.045094 .041597 -.045094 .041597 629.67 -89.862)" d="m245.26 337.85c-17.964 18.06-139.36 50.366-164.01 43.756-24.643-6.6095-113.41-95.181-120.03-119.8-6.6246-24.618 25.693-146.46 43.751-164.47 18.058-18.016 140.09-50.144 164.7-43.555 24.611 6.5888 113.34 95.029 119.86 119.65 6.5168 24.625-26.303 146.36-44.266 164.42z" style="paint-order:stroke fill markers"/>
      </g>
</svg>
